<svg width="200" height="200" viewBox="0 0 100 100" fill="none" xmlns="http://www.w3.org/2000/svg">
  <!-- Background circle -->
  <circle cx="50" cy="50" r="48" fill="#2D6A4F"/>
  <!-- Tulip: left outer petal -->
  <path d="M50 22 C44 22 34 28 33 40 C32 50 38 56 50 57 C50 57 50 40 50 22Z" fill="#A01830"/>
  <!-- Tulip: right outer petal -->
  <path d="M50 22 C56 22 66 28 67 40 C68 50 62 56 50 57 C50 57 50 40 50 22Z" fill="#A01830"/>
  <!-- Tulip: center front petal -->
  <path d="M50 18 C45 24 43 32 43 42 C43 52 46 57 50 58 C54 57 57 52 57 42 C57 32 55 24 50 18Z" fill="#C41E3A"/>
  <!-- Tulip: inner highlight -->
  <path d="M50 22 C47 28 46 35 46 42 C46 50 48 55 50 57 C52 55 54 50 54 42 C54 35 53 28 50 22Z" fill="#E8314A"/>
  <!-- Tulip: petal tip highlight -->
  <path d="M50 18 C48 22 47 26 48 30 C49 26 50 22 50 18Z" fill="#FF6B6B" opacity="0.6"/>
  <!-- Stem -->
  <line x1="50" y1="58" x2="50" y2="82" stroke="#1B4332" stroke-width="3.5" stroke-linecap="round"/>
  <!-- Left leaf -->
  <path d="M50 72 C46 68 38 66 34 60 C38 62 44 66 50 72Z" fill="#52B788" stroke="#2D6A4F" stroke-width="0.5"/>
  <!-- Right leaf -->
  <path d="M50 68 C54 64 62 62 66 56 C62 58 56 63 50 68Z" fill="#52B788" stroke="#2D6A4F" stroke-width="0.5"/>
</svg>
